<svg width="266" height="47" viewBox="0 0 266 47" fill="none" xmlns="http://www.w3.org/2000/svg">
<path d="M26.312 4.016C26.184 5.456 26.088 6.848 26.024 8.192C25.992 9.536 25.976 10.576 25.976 11.312C25.976 12.016 25.992 12.688 26.024 13.328C26.056 13.968 26.088 14.512 26.12 14.96H25.016C24.6 12.464 24.024 10.512 23.288 9.104C22.552 7.664 21.64 6.64 20.552 6.032C19.496 5.424 18.232 5.12 16.76 5.12H15.176C14.248 5.12 13.544 5.2 13.064 5.36C12.584 5.52 12.264 5.84 12.104 6.32C11.944 6.8 11.864 7.536 11.864 8.528V32.624C11.864 33.872 11.992 34.8 12.248 35.408C12.504 36.016 13 36.416 13.736 36.608C14.472 36.8 15.56 36.912 17 36.944V38C16.008 37.968 14.728 37.936 13.16 37.904C11.592 37.872 9.944 37.856 8.216 37.856C6.84 37.856 5.496 37.872 4.184 37.904C2.872 37.936 1.688 37.968 0.632 38V37.04C1.656 36.976 2.424 36.848 2.936 36.656C3.448 36.464 3.784 36.08 3.944 35.504C4.136 34.928 4.232 34.064 4.232 32.912V9.104C4.232 7.92 4.136 7.056 3.944 6.512C3.784 5.936 3.432 5.552 2.888 5.36C2.376 5.136 1.624 5.008 0.632 4.976V4.016C1.944 4.048 3.336 4.08 4.808 4.112C6.28 4.112 7.736 4.128 9.176 4.16C10.616 4.16 11.96 4.16 13.208 4.16C14.456 4.16 15.48 4.16 16.28 4.16C17.752 4.16 19.416 4.16 21.272 4.16C23.16 4.128 24.84 4.08 26.312 4.016ZM19.16 20.624C19.16 20.624 19.16 20.784 19.16 21.104C19.16 21.424 19.16 21.584 19.16 21.584H10.424C10.424 21.584 10.424 21.424 10.424 21.104C10.424 20.784 10.424 20.624 10.424 20.624H19.16ZM20.36 14.288C20.232 16.112 20.168 17.504 20.168 18.464C20.2 19.424 20.216 20.304 20.216 21.104C20.216 21.904 20.232 22.784 20.264 23.744C20.296 24.704 20.376 26.096 20.504 27.92H19.4C19.208 26.8 18.904 25.76 18.488 24.8C18.072 23.84 17.464 23.072 16.664 22.496C15.864 21.888 14.824 21.584 13.544 21.584V20.624C14.504 20.624 15.304 20.432 15.944 20.048C16.616 19.632 17.176 19.104 17.624 18.464C18.072 17.792 18.424 17.088 18.68 16.352C18.936 15.616 19.128 14.928 19.256 14.288H20.36ZM39.7235 12.512C42.5395 12.512 44.7475 13.344 46.3475 15.008C47.9475 16.672 48.7475 19.392 48.7475 23.168H32.9555L32.8595 22.256H42.6995C42.7315 20.688 42.6355 19.248 42.4115 17.936C42.1875 16.592 41.8355 15.52 41.3555 14.72C40.8755 13.92 40.2355 13.52 39.4355 13.52C38.3155 13.52 37.3555 14.224 36.5555 15.632C35.7875 17.04 35.3235 19.376 35.1635 22.64L35.3075 22.928C35.2755 23.312 35.2435 23.712 35.2115 24.128C35.2115 24.544 35.2115 24.976 35.2115 25.424C35.2115 27.632 35.5155 29.424 36.1235 30.8C36.7635 32.176 37.5635 33.184 38.5235 33.824C39.4835 34.432 40.4595 34.736 41.4515 34.736C42.1235 34.736 42.8115 34.64 43.5155 34.448C44.2515 34.224 44.9875 33.84 45.7235 33.296C46.4595 32.72 47.1475 31.92 47.7875 30.896L48.6515 31.184C48.2675 32.4 47.6595 33.584 46.8275 34.736C45.9955 35.888 44.9395 36.832 43.6595 37.568C42.3795 38.304 40.8435 38.672 39.0515 38.672C36.8755 38.672 34.9555 38.208 33.2915 37.28C31.6275 36.352 30.3155 34.944 29.3555 33.056C28.4275 31.168 27.9635 28.768 27.9635 25.856C27.9635 22.88 28.4595 20.4 29.4515 18.416C30.4755 16.432 31.8675 14.96 33.6275 14C35.4195 13.008 37.4515 12.512 39.7235 12.512ZM61.319 0.415998V33.536C61.319 34.88 61.543 35.792 61.991 36.272C62.471 36.752 63.271 36.992 64.391 36.992V38C63.783 37.968 62.871 37.936 61.655 37.904C60.439 37.84 59.207 37.808 57.959 37.808C56.711 37.808 55.447 37.84 54.167 37.904C52.919 37.936 51.975 37.968 51.335 38V36.992C52.455 36.992 53.239 36.752 53.687 36.272C54.167 35.792 54.407 34.88 54.407 33.536V6.176C54.407 4.736 54.183 3.68 53.735 3.008C53.319 2.304 52.519 1.952 51.335 1.952V0.943999C52.359 1.04 53.351 1.088 54.311 1.088C55.623 1.088 56.871 1.04 58.055 0.943999C59.239 0.815999 60.327 0.639998 61.319 0.415998ZM72.6733 0.799998C74.0173 0.799998 75.0733 1.136 75.8413 1.808C76.6413 2.448 77.0413 3.344 77.0413 4.496C77.0413 5.648 76.6413 6.56 75.8413 7.232C75.0733 7.872 74.0173 8.192 72.6733 8.192C71.3293 8.192 70.2573 7.872 69.4573 7.232C68.6893 6.56 68.3053 5.648 68.3053 4.496C68.3053 3.344 68.6893 2.448 69.4573 1.808C70.2573 1.136 71.3293 0.799998 72.6733 0.799998ZM76.4173 12.656V33.536C76.4173 34.88 76.6413 35.792 77.0893 36.272C77.5693 36.752 78.3693 36.992 79.4893 36.992V38C78.9133 37.968 78.0173 37.936 76.8013 37.904C75.5853 37.84 74.3533 37.808 73.1053 37.808C71.8573 37.808 70.5933 37.84 69.3133 37.904C68.0333 37.936 67.0733 37.968 66.4333 38V36.992C67.5533 36.992 68.3373 36.752 68.7853 36.272C69.2653 35.792 69.5053 34.88 69.5053 33.536V18.416C69.5053 16.976 69.2813 15.92 68.8333 15.248C68.4173 14.544 67.6173 14.192 66.4333 14.192V13.184C67.4573 13.28 68.4493 13.328 69.4093 13.328C70.7533 13.328 72.0013 13.28 73.1533 13.184C74.3373 13.056 75.4253 12.88 76.4173 12.656ZM107.734 13.232C107.734 13.232 107.734 13.456 107.734 13.904C107.734 14.352 107.734 14.912 107.734 15.584C107.734 16.224 107.734 16.88 107.734 17.552C107.734 18.192 107.734 18.736 107.734 19.184C107.734 19.632 107.734 19.856 107.734 19.856H90.5499C89.2699 19.856 88.1339 19.984 87.1419 20.24C86.1819 20.464 85.3179 20.944 84.5499 21.68C83.8139 22.416 83.1419 23.52 82.5339 24.992L81.7179 24.8C82.2619 22.368 82.9979 20.304 83.9259 18.608C84.8539 16.88 86.1019 15.552 87.6699 14.624C89.2699 13.696 91.3499 13.232 93.9099 13.232H107.734ZM93.5259 18.896C93.2699 22.256 92.9179 25.088 92.4699 27.392C92.0539 29.664 91.6219 31.52 91.1739 32.96C90.7259 34.368 90.2779 35.488 89.8299 36.32C89.5099 36.928 88.9979 37.472 88.2939 37.952C87.6219 38.432 86.7259 38.672 85.6059 38.672C84.7739 38.672 84.1019 38.448 83.5899 38C83.0779 37.552 82.8219 36.96 82.8219 36.224C82.8219 35.2 83.1579 34.368 83.8299 33.728C84.5019 33.088 85.3819 32.432 86.4699 31.76C87.3979 31.184 88.1979 30.592 88.8699 29.984C89.5739 29.376 90.1819 28.624 90.6939 27.728C91.2059 26.8 91.6219 25.632 91.9419 24.224C92.2939 22.816 92.5659 21.04 92.7579 18.896H93.5259ZM99.3819 16.928L97.8939 27.344C97.7659 28.656 97.9259 29.584 98.3739 30.128C98.8219 30.672 99.4459 30.944 100.246 30.944C101.526 30.944 102.598 30.56 103.462 29.792C104.358 28.992 105.11 27.664 105.718 25.808L106.63 26C106.502 26.768 106.31 27.68 106.054 28.736C105.83 29.792 105.526 30.896 105.142 32.048C104.758 33.2 104.294 34.288 103.75 35.312C103.206 36.304 102.582 37.12 101.878 37.76C101.174 38.368 100.358 38.672 99.4299 38.672C98.4379 38.672 97.6699 38.368 97.1259 37.76C96.6139 37.12 96.3099 36.144 96.2139 34.832C96.1179 33.488 96.2299 31.76 96.5499 29.648L98.4699 16.928H99.3819ZM140.181 0.463997C141.365 0.463997 142.453 0.623998 143.445 0.943999C144.437 1.232 145.221 1.696 145.797 2.336C146.405 2.944 146.709 3.76 146.709 4.784C146.709 5.744 146.389 6.56 145.749 7.232C145.141 7.872 144.325 8.192 143.301 8.192C142.245 8.192 141.397 7.888 140.757 7.28C140.149 6.672 139.845 5.92 139.845 5.024C139.845 4.288 140.021 3.616 140.373 3.008C140.725 2.4 141.269 1.92 142.005 1.568C141.909 1.504 141.749 1.456 141.525 1.424C141.333 1.36 141.093 1.328 140.805 1.328C139.333 1.392 138.341 1.984 137.829 3.104C137.349 4.192 137.109 5.712 137.109 7.664V32.528C137.109 34.256 137.013 35.792 136.821 37.136C136.661 38.48 136.357 39.664 135.909 40.688C135.461 41.712 134.837 42.64 134.037 43.472C133.269 44.272 132.245 44.896 130.965 45.344C129.685 45.824 128.133 46.064 126.309 46.064C125.669 46.064 124.997 46 124.293 45.872C123.589 45.744 122.933 45.536 122.325 45.248C121.749 44.992 121.269 44.608 120.885 44.096C120.533 43.616 120.357 43.024 120.357 42.32C120.357 41.392 120.693 40.64 121.365 40.064C122.037 39.488 122.933 39.2 124.053 39.2C125.109 39.2 125.941 39.456 126.549 39.968C127.189 40.512 127.509 41.264 127.509 42.224C127.509 42.736 127.365 43.264 127.077 43.808C126.789 44.352 126.277 44.8 125.541 45.152C125.701 45.152 125.845 45.152 125.973 45.152C126.101 45.184 126.229 45.2 126.357 45.2C127.509 45.136 128.357 44.816 128.901 44.24C129.445 43.664 129.797 42.848 129.957 41.792C130.117 40.768 130.197 39.568 130.197 38.192L130.245 14C130.245 12.272 130.325 10.736 130.485 9.392C130.677 8.048 130.997 6.864 131.445 5.84C131.893 4.784 132.501 3.856 133.269 3.056C134.069 2.256 135.077 1.632 136.293 1.184C137.541 0.703998 138.837 0.463997 140.181 0.463997ZM154.479 38.336C153.039 38.336 151.839 38.064 150.879 37.52C149.919 36.976 149.215 36.256 148.767 35.36C148.319 34.432 148.095 33.424 148.095 32.336C148.095 30.96 148.399 29.84 149.007 28.976C149.647 28.112 150.463 27.408 151.455 26.864C152.447 26.32 153.487 25.872 154.575 25.52C155.695 25.168 156.751 24.832 157.743 24.512C158.767 24.16 159.583 23.76 160.191 23.312C160.831 22.832 161.151 22.224 161.151 21.488V17.744C161.151 16.912 161.007 16.176 160.719 15.536C160.463 14.864 160.047 14.352 159.471 14C158.927 13.648 158.207 13.472 157.311 13.472C156.671 13.472 156.031 13.568 155.391 13.76C154.751 13.92 154.223 14.208 153.807 14.624C154.703 14.944 155.391 15.44 155.871 16.112C156.383 16.752 156.639 17.488 156.639 18.32C156.639 19.408 156.255 20.272 155.487 20.912C154.751 21.552 153.871 21.872 152.847 21.872C151.695 21.872 150.815 21.52 150.207 20.816C149.631 20.08 149.343 19.2 149.343 18.176C149.343 17.248 149.567 16.48 150.015 15.872C150.495 15.264 151.151 14.688 151.983 14.144C152.879 13.632 153.951 13.232 155.199 12.944C156.479 12.656 157.855 12.512 159.327 12.512C160.799 12.512 162.127 12.672 163.311 12.992C164.495 13.28 165.487 13.824 166.287 14.624C167.023 15.36 167.503 16.272 167.727 17.36C167.951 18.416 168.063 19.76 168.063 21.392V34.448C168.063 35.248 168.143 35.808 168.303 36.128C168.463 36.416 168.735 36.56 169.119 36.56C169.407 36.56 169.679 36.48 169.935 36.32C170.223 36.16 170.527 35.968 170.847 35.744L171.327 36.56C170.655 37.136 169.871 37.584 168.975 37.904C168.111 38.192 167.135 38.336 166.047 38.336C164.863 38.336 163.919 38.176 163.215 37.856C162.511 37.504 161.999 37.04 161.679 36.464C161.391 35.888 161.247 35.216 161.247 34.448C160.479 35.664 159.551 36.624 158.463 37.328C157.375 38 156.047 38.336 154.479 38.336ZM157.887 35.264C158.527 35.264 159.103 35.12 159.615 34.832C160.159 34.512 160.671 34 161.151 33.296V23.456C160.863 23.936 160.463 24.368 159.951 24.752C159.439 25.136 158.895 25.536 158.319 25.952C157.743 26.336 157.183 26.768 156.639 27.248C156.127 27.728 155.711 28.32 155.391 29.024C155.071 29.728 154.911 30.576 154.911 31.568C154.911 32.816 155.183 33.744 155.727 34.352C156.271 34.96 156.991 35.264 157.887 35.264ZM190.555 12.512C191.899 12.512 192.987 12.688 193.819 13.04C194.683 13.36 195.355 13.808 195.835 14.384C196.347 14.992 196.715 15.776 196.939 16.736C197.195 17.696 197.323 18.992 197.323 20.624V33.536C197.323 34.88 197.547 35.792 197.995 36.272C198.475 36.752 199.275 36.992 200.395 36.992V38C199.787 37.968 198.875 37.936 197.659 37.904C196.443 37.84 195.243 37.808 194.059 37.808C192.843 37.808 191.643 37.84 190.459 37.904C189.307 37.936 188.427 37.968 187.819 38V36.992C188.779 36.992 189.451 36.752 189.835 36.272C190.219 35.792 190.411 34.88 190.411 33.536V18.608C190.411 17.808 190.331 17.12 190.171 16.544C190.011 15.936 189.723 15.472 189.307 15.152C188.891 14.8 188.267 14.624 187.435 14.624C186.571 14.624 185.771 14.864 185.035 15.344C184.331 15.824 183.755 16.496 183.307 17.36C182.891 18.192 182.683 19.136 182.683 20.192V33.536C182.683 34.88 182.875 35.792 183.259 36.272C183.675 36.752 184.347 36.992 185.275 36.992V38C184.699 37.968 183.851 37.936 182.731 37.904C181.643 37.84 180.507 37.808 179.323 37.808C178.107 37.808 176.859 37.84 175.579 37.904C174.299 37.936 173.339 37.968 172.699 38V36.992C173.819 36.992 174.603 36.752 175.051 36.272C175.531 35.792 175.771 34.88 175.771 33.536V18.416C175.771 16.976 175.547 15.92 175.099 15.248C174.683 14.544 173.883 14.192 172.699 14.192V13.184C173.723 13.28 174.715 13.328 175.675 13.328C177.019 13.328 178.267 13.28 179.419 13.184C180.603 13.056 181.691 12.88 182.683 12.656V16.976C183.483 15.344 184.571 14.192 185.947 13.52C187.323 12.848 188.859 12.512 190.555 12.512ZM211.927 5.312V13.184H217.591V14.144H211.927V33.536C211.927 34.496 212.103 35.184 212.455 35.6C212.807 35.984 213.335 36.176 214.039 36.176C214.615 36.176 215.191 35.968 215.767 35.552C216.343 35.104 216.855 34.352 217.303 33.296L218.119 33.728C217.607 35.168 216.823 36.352 215.767 37.28C214.743 38.208 213.335 38.672 211.543 38.672C210.487 38.672 209.559 38.528 208.759 38.24C207.959 37.984 207.287 37.584 206.743 37.04C206.039 36.336 205.575 35.472 205.351 34.448C205.127 33.392 205.015 32.032 205.015 30.368V14.144H200.983V13.184H205.015V6.848C206.359 6.848 207.591 6.736 208.711 6.512C209.863 6.256 210.935 5.856 211.927 5.312ZM231.255 12.512C233.591 12.512 235.639 12.944 237.399 13.808C239.159 14.672 240.535 16.064 241.527 17.984C242.519 19.904 243.015 22.448 243.015 25.616C243.015 28.784 242.519 31.328 241.527 33.248C240.535 35.136 239.159 36.512 237.399 37.376C235.639 38.24 233.591 38.672 231.255 38.672C228.983 38.672 226.951 38.24 225.159 37.376C223.399 36.512 222.007 35.136 220.983 33.248C219.991 31.328 219.495 28.784 219.495 25.616C219.495 22.448 219.991 19.904 220.983 17.984C222.007 16.064 223.399 14.672 225.159 13.808C226.951 12.944 228.983 12.512 231.255 12.512ZM231.255 13.472C229.975 13.472 228.903 14.432 228.039 16.352C227.175 18.24 226.743 21.328 226.743 25.616C226.743 29.904 227.175 32.992 228.039 34.88C228.903 36.768 229.975 37.712 231.255 37.712C232.567 37.712 233.639 36.768 234.471 34.88C235.335 32.992 235.767 29.904 235.767 25.616C235.767 21.328 235.335 18.24 234.471 16.352C233.639 14.432 232.567 13.472 231.255 13.472ZM255.515 12.512C256.859 12.512 258.027 12.688 259.019 13.04C260.043 13.36 260.779 13.68 261.227 14C262.315 14.736 262.987 14.256 263.243 12.56H264.251C264.187 13.456 264.139 14.56 264.107 15.872C264.075 17.152 264.059 18.864 264.059 21.008H263.051C262.891 19.824 262.587 18.656 262.139 17.504C261.691 16.352 261.035 15.408 260.171 14.672C259.339 13.936 258.251 13.568 256.907 13.568C255.979 13.568 255.195 13.84 254.555 14.384C253.915 14.896 253.595 15.648 253.595 16.64C253.595 17.6 253.883 18.448 254.459 19.184C255.035 19.888 255.771 20.576 256.667 21.248C257.595 21.888 258.555 22.576 259.547 23.312C260.603 24.112 261.563 24.912 262.427 25.712C263.291 26.48 263.979 27.328 264.491 28.256C265.003 29.184 265.259 30.288 265.259 31.568C265.259 33.008 264.843 34.272 264.011 35.36C263.179 36.416 262.075 37.232 260.699 37.808C259.355 38.384 257.851 38.672 256.187 38.672C255.227 38.672 254.363 38.576 253.595 38.384C252.859 38.192 252.219 37.952 251.675 37.664C251.259 37.472 250.859 37.296 250.475 37.136C250.123 36.944 249.787 36.784 249.467 36.656C249.147 36.56 248.859 36.672 248.603 36.992C248.379 37.312 248.203 37.76 248.075 38.336H247.067C247.131 37.312 247.179 36.064 247.211 34.592C247.243 33.12 247.259 31.168 247.259 28.736H248.267C248.459 30.464 248.811 32 249.323 33.344C249.835 34.656 250.523 35.696 251.387 36.464C252.283 37.2 253.403 37.568 254.747 37.568C255.291 37.568 255.819 37.456 256.331 37.232C256.843 37.008 257.259 36.64 257.579 36.128C257.931 35.616 258.107 34.96 258.107 34.16C258.107 32.752 257.643 31.584 256.715 30.656C255.819 29.728 254.667 28.72 253.259 27.632C252.235 26.8 251.259 25.984 250.331 25.184C249.435 24.352 248.699 23.456 248.123 22.496C247.547 21.504 247.259 20.384 247.259 19.136C247.259 17.696 247.643 16.48 248.411 15.488C249.179 14.496 250.187 13.76 251.435 13.28C252.715 12.768 254.075 12.512 255.515 12.512Z" fill="#141414"/>
</svg>
